HIERARCHY
ROOT Hips
{
	OFFSET -3.958830 18.904000 13.208200
	CHANNELS 6 Xposition Yposition Zposition Zrotation Yrotation Xrotation 
	JOINT LHipJoint
	{
		OFFSET 0.000000 0.000000 0.000000
		CHANNELS 3 Zrotation Yrotation Xrotation
		JOINT LeftUpLeg
		{
			OFFSET 1.800000 -1.400000 0.085000
			CHANNELS 3 Zrotation Yrotation Xrotation
			JOINT LeftLeg
			{
				OFFSET 2.215000 -6.000000 0.000000
				CHANNELS 3 Zrotation Yrotation Xrotation
				JOINT LeftFoot
				{
					OFFSET 2.500000 -6.900000 0.000000
					CHANNELS 3 Zrotation Yrotation Xrotation
					JOINT LeftToeBase
					{
						OFFSET 0.200000 -0.500000 1.950000
						CHANNELS 3 Zrotation Yrotation Xrotation
						End Site
						{
							OFFSET 0.000000 0.000000 0.000000
						}
					}
				}
			}
		}
	}
	JOINT RHipJoint
	{
		OFFSET 0.000000 0.000000 0.000000
		CHANNELS 3 Zrotation Yrotation Xrotation
		JOINT RightUpLeg
		{
			OFFSET -1.800000 -1.400000 0.085000
			CHANNELS 3 Zrotation Yrotation Xrotation
			JOINT RightLeg
			{
				OFFSET -2.215000 -6.000000 0.000000
				CHANNELS 3 Zrotation Yrotation Xrotation
				JOINT RightFoot
				{
					OFFSET -2.500000 -6.900000 0.000000
					CHANNELS 3 Zrotation Yrotation Xrotation
					JOINT RightToeBase
					{
						OFFSET -0.200000 -0.500000 1.950000
						CHANNELS 3 Zrotation Yrotation Xrotation
						End Site
						{
							OFFSET 0.000000 0.000000 0.000000
						}
					}
				}
			}
		}
	}
	JOINT LowerBack
	{
		OFFSET 0.000000 0.000000 0.000000
		CHANNELS 3 Zrotation Yrotation Xrotation
		JOINT Spine
		{
			OFFSET -0.087000 1.940000 -0.288900
			CHANNELS 3 Zrotation Yrotation Xrotation
			JOINT Spine1
			{
				OFFSET 0.000000 1.950000 0.060000
				CHANNELS 3 Zrotation Yrotation Xrotation
				JOINT Neck
				{
					OFFSET 0.000000 0.000000 0.000000
					CHANNELS 3 Zrotation Yrotation Xrotation
					JOINT Neck1
					{
						OFFSET 0.000000 1.600000 0.340000
						CHANNELS 3 Zrotation Yrotation Xrotation
						JOINT Head
						{
							OFFSET 0.000000 1.667000 -0.240000
							CHANNELS 3 Zrotation Yrotation Xrotation
							End Site
							{
								OFFSET 0.000000 0.000000 0.000000
							}
						}
					}
				}
				JOINT LeftShoulder
				{
					OFFSET 0.000000 0.000000 0.000000
					CHANNELS 3 Zrotation Yrotation Xrotation
					JOINT LeftArm
					{
						OFFSET 2.700000 1.550000 -0.730000
						CHANNELS 3 Zrotation Yrotation Xrotation
						JOINT LeftForeArm
						{
							OFFSET 5.450000 0.000000 0.000000
							CHANNELS 3 Zrotation Yrotation Xrotation
							JOINT LeftHand
							{
								OFFSET 3.450000 0.000000 0.000000
								CHANNELS 3 Zrotation Yrotation Xrotation
								JOINT LeftHandIndex1
								{
									OFFSET 0.750000 0.000000 0.000000
									CHANNELS 3 Zrotation Yrotation Xrotation
									End Site
									{
										OFFSET 0.000000 0.000000 0.000000
									}
								}
							}
						}
					}
				}
				JOINT RightShoulder
				{
					OFFSET 0.000000 0.000000 0.000000
					CHANNELS 3 Zrotation Yrotation Xrotation
					JOINT RightArm
					{
						OFFSET -2.700000 1.550000 -0.730000
						CHANNELS 3 Zrotation Yrotation Xrotation
						JOINT RightForeArm
						{
							OFFSET -5.450000 0.000000 0.000000
							CHANNELS 3 Zrotation Yrotation Xrotation
							JOINT RightHand
							{
								OFFSET -3.450000 0.000000 0.000000
								CHANNELS 3 Zrotation Yrotation Xrotation
								JOINT RightHandIndex1
								{
									OFFSET -0.750000 0.000000 0.000000
									CHANNELS 3 Zrotation Yrotation Xrotation
									End Site
									{
										OFFSET 0.000000 0.000000 0.000000
									}
								}
							}
						}
					}
				}
			}
		}
	}
}
MOTION
Frames: 10
Frame Time: 0.016667
0.671710 18.316470 -1.212050 -3.737951 -23.970925 -16.082371 -15.604068 11.704628 2.734003 2.081823 2.751697 12.160295 -6.980186 4.691815 -6.625766 -0.387065 5.648616 2.761050 -0.125810 -0.444120 -0.098020 18.628742 -5.953331 7.543722 1.151863 32.714472 -59.390723 1.513967 -16.677664 92.020665 -2.904620 -14.396872 0.106766 -0.172500 0.382130 -0.074230 -3.872112 -4.015713 -9.944705 21.428537 -5.606943 38.071573 -4.578862 2.010411 1.176894 3.080449 -6.452645 -13.679983 -20.241384 11.327098 53.423344 -8.776840 6.361330 -12.425930 -29.522161 -19.431257 3.397161 -15.658065 -3.598964 -9.343680 6.928857 -62.445751 -5.600387 -3.695024 2.518554 0.943060 0.044780 -0.120620 -0.044690 23.475719 24.945085 11.080024 36.287471 6.280491 -6.493510 12.064733 24.227867 1.645126 1.747860 -0.638160 -0.606120 0.702920 0.617360 -0.388780 
0.672090 18.314100 -1.212690 -3.717659 -24.058167 -15.977558 -15.602013 11.715060 2.727089 2.098421 2.729048 11.985822 -7.202802 4.736170 -6.385652 -0.380262 5.638364 2.763279 -0.124070 -0.440340 -0.104150 18.628060 -5.964137 7.536487 1.469015 32.727463 -58.982173 1.483783 -16.664839 92.085000 -2.904291 -14.405639 0.105307 -0.172870 0.384740 -0.073140 -3.874552 -4.021347 -9.936600 21.559849 -5.580805 38.037922 -4.539930 2.096894 1.073834 3.000915 -6.605473 -13.750200 -20.674717 11.445977 53.171157 -8.442350 6.185450 -12.020370 -29.766022 -19.520608 3.330565 -15.339912 -3.754658 -9.252910 6.456826 -61.980747 -5.233588 -3.697034 2.539654 0.930050 0.046850 -0.127150 -0.043510 23.903479 25.097854 11.229858 36.117712 5.984107 -6.551609 11.764330 24.114458 1.576929 1.747206 -0.652326 -0.597220 0.693980 0.615720 -0.381930 
0.672200 18.303980 -1.211070 -3.508594 -24.166788 -15.852184 -15.599722 11.726998 2.703265 1.952785 2.753052 11.646922 -7.538379 4.828022 -5.792289 -0.376764 5.613881 2.774302 -0.138420 -0.446720 -0.123710 18.627794 -5.976347 7.544351 1.121022 32.764002 -59.392785 1.683165 -17.016828 92.544890 -2.919267 -14.526741 0.076778 -0.175730 0.399980 -0.078710 -3.879483 -4.021344 -9.925656 21.512098 -5.415597 37.884959 -4.361478 2.212618 0.980075 2.833554 -6.812264 -13.758352 -21.184494 11.548318 52.590707 -8.128710 6.006790 -11.386760 -29.919923 -19.546843 3.189971 -15.016435 -4.180521 -9.058860 5.707447 -60.970750 -4.613402 -3.712089 2.550959 0.904980 0.057010 -0.142780 -0.044240 24.421233 25.186141 11.369577 36.064905 5.623331 -6.634468 11.439416 24.004732 1.488321 1.748930 -0.663204 -0.594350 0.693830 0.621870 -0.369680 
0.673450 18.293120 -1.210050 -3.478399 -24.576197 -15.508967 -15.601242 11.743681 2.656237 2.047773 2.671808 11.026997 -8.172204 4.995210 -4.836926 -0.388305 5.597057 2.781129 -0.148080 -0.451940 -0.145340 18.627818 -5.965300 7.580254 1.824272 33.067908 -58.926739 1.324395 -16.752241 92.902705 -2.916816 -14.538249 0.076087 -0.176230 0.415650 -0.080980 -3.888675 -4.044435 -9.911132 21.768844 -5.300209 37.719543 -4.137120 2.455359 0.895809 2.685247 -7.235263 -13.902128 -22.258769 11.865318 51.762138 -7.818350 5.739150 -10.929970 -30.199205 -19.610150 3.065844 -14.915029 -4.496970 -8.951952 5.335416 -59.888901 -4.275745 -3.721852 2.559314 0.888940 0.064930 -0.158200 -0.043110 25.059497 25.492683 11.629290 35.890353 5.220968 -6.637088 10.688561 23.355978 1.312429 1.745490 -0.671061 -0.593510 0.693860 0.630820 -0.358950 
0.680680 18.282550 -1.208060 -3.757076 -25.101386 -14.814999 -15.585438 11.730734 2.565797 2.310008 2.468420 9.998742 -8.879149 5.229045 -3.388378 -0.428442 5.576156 2.793338 -0.168530 -0.475710 -0.174720 18.650152 -5.959796 7.667181 3.114955 33.545543 -58.295743 0.294809 -15.671212 92.993304 -2.874213 -14.400830 0.109338 -0.180310 0.449400 -0.077220 -3.972069 -3.972950 -9.875312 22.660284 -5.440342 37.204257 -4.238113 2.676691 1.057092 2.585867 -7.724563 -14.081906 -23.400721 12.276585 50.686293 -7.443270 5.471000 -10.474450 -30.350384 -19.748092 3.016502 -15.184621 -4.756418 -8.952223 5.430759 -59.024706 -4.304731 -3.744813 2.550037 0.878760 0.082560 -0.180070 -0.042160 25.434234 25.853860 11.882585 35.894803 4.922351 -6.653799 10.040464 22.785361 1.159402 1.734141 -0.669723 -0.604580 0.704730 0.653560 -0.349420 
0.690950 18.271490 -1.201150 -4.068396 -25.614938 -14.049556 -15.568751 11.728301 2.461845 2.560265 2.261042 8.792392 -9.707718 5.559400 -1.540262 -0.489431 5.577318 2.788354 -0.196730 -0.521240 -0.194020 18.671268 -5.958234 7.755581 4.005621 33.973805 -58.109145 -0.483076 -14.895803 93.140524 -2.838359 -14.327163 0.114904 -0.190920 0.474160 -0.065090 -4.053301 -3.909955 -9.834495 23.565549 -5.605928 36.666415 -4.405528 2.865204 1.061132 2.559779 -8.109743 -14.102451 -24.163314 12.601488 49.563026 -7.549680 5.486010 -10.201410 -30.608061 -19.650742 2.935014 -15.775301 -4.920090 -8.981021 5.851834 -58.474024 -4.573057 -3.777811 2.537591 0.880830 0.101260 -0.203290 -0.058100 25.727322 25.926963 11.958548 36.194826 4.796740 -6.625576 9.295428 22.148598 1.015167 1.725222 -0.662285 -0.623110 0.703320 0.688240 -0.356090 
0.700000 18.266220 -1.193460 -4.097017 -26.081515 -13.623568 -15.564981 11.741166 2.389177 2.714578 2.121327 7.773365 -10.496039 5.868788 -0.057560 -0.561126 5.625450 2.769832 -0.231150 -0.582680 -0.215940 18.677916 -5.945593 7.815552 4.692209 34.192267 -57.825646 -1.318663 -14.083109 93.294639 -2.805337 -14.248985 0.123161 -0.203300 0.505590 -0.055200 -4.085510 -3.910296 -9.808272 23.986892 -5.656898 36.521383 -4.480083 3.040542 0.847903 2.545455 -8.410065 -14.107714 -24.854341 13.037852 48.825105 -7.680090 5.568220 -10.214290 -31.011906 -19.512172 2.834996 -16.438964 -4.982002 -9.046508 6.185180 -58.142601 -4.853836 -3.812093 2.509226 0.907160 0.117010 -0.224350 -0.071410 26.160909 25.933532 11.991497 36.523196 4.721047 -6.606792 8.641247 21.454837 0.909982 1.705350 -0.636383 -0.661190 0.719730 0.733730 -0.371630 
0.707820 18.249460 -1.183460 -4.198602 -26.450992 -12.968686 -15.547593 11.715922 2.299502 2.901193 1.956885 6.461445 -11.639573 6.301657 1.726007 -0.574722 5.636806 2.749256 -0.236410 -0.588750 -0.217270 18.700040 -5.948940 7.897208 5.130753 34.528184 -58.198991 -2.035132 -13.447801 93.694481 -2.791621 -14.239689 0.099349 -0.206170 0.502890 -0.032050 -4.168541 -3.811986 -9.780061 24.536915 -5.730456 36.000711 -4.709140 3.130991 0.764372 2.498812 -8.604518 -13.820583 -24.919947 13.050826 47.720005 -7.976470 5.771880 -10.064470 -31.460307 -19.163969 2.634323 -16.914112 -5.187728 -9.092565 6.069457 -58.146845 -4.859545 -3.832178 2.545834 0.885240 0.126300 -0.228940 -0.084580 26.604776 25.619113 11.830509 36.978896 4.776706 -6.573963 8.032809 21.099167 0.786157 1.721354 -0.660253 -0.644530 0.687450 0.742060 -0.367580 
0.714010 18.241900 -1.176540 -3.940222 -26.855773 -13.145093 -15.560470 11.735584 2.259864 2.822371 1.977282 5.917059 -12.397260 6.657746 2.957824 -0.570501 5.670244 2.722763 -0.216960 -0.561840 -0.208910 18.691613 -5.907759 7.946604 5.295476 34.870118 -58.331377 -2.412345 -13.315304 94.560787 -2.827228 -14.332563 0.071095 -0.193450 0.483250 -0.029710 -4.148702 -3.867762 -9.780057 24.377577 -5.724131 36.702158 -4.764258 3.227334 0.257469 2.477874 -8.810258 -13.599334 -25.367980 13.284447 47.157704 -7.993870 5.777170 -10.677710 -32.349966 -18.827378 2.335617 -17.088594 -5.226531 -9.253231 6.009757 -58.302353 -4.890522 -3.819715 2.571591 0.884280 0.112540 -0.218160 -0.083170 27.507808 25.395177 11.754231 36.874700 4.654008 -6.643758 7.743391 20.897379 0.730275 1.725165 -0.674264 -0.631260 0.676760 0.732120 -0.365910 
0.708080 18.230990 -1.177470 -3.099388 -27.469438 -13.943313 -15.605019 11.768607 2.255287 2.541731 2.138688 5.710604 -13.408281 7.044059 3.861815 -0.520144 5.719514 2.698576 -0.156060 -0.483470 -0.170150 18.657486 -5.809357 8.004639 5.475645 35.370888 -58.179668 -2.868039 -13.055568 95.689374 -2.892940 -14.426694 0.063521 -0.168100 0.442360 -0.028220 -4.041561 -4.025740 -9.829746 23.093921 -5.229933 38.182364 -4.424554 3.426739 -0.330095 2.414982 -8.873668 -13.346908 -25.542229 13.392958 47.051108 -8.154360 5.849610 -11.774080 -33.368813 -18.526574 1.983567 -16.817998 -5.140316 -9.541252 6.242116 -58.787916 -5.057729 -3.778457 2.605583 0.883080 0.086260 -0.184460 -0.061020 28.672368 25.268837 11.702045 36.531174 4.626162 -6.773087 7.474919 20.936097 0.674480 1.728471 -0.705781 -0.594520 0.664000 0.681030 -0.359250 
